<svg xmlns="http://www.w3.org/2000/svg" width="1174" height="1174" fill="none" viewBox="0 0 1174 1174"><g filter="url(#a)"><path fill="#74d4ff" fill-opacity=".4" d="M632.483 358.555c68.585-344.74-159.469-344.74-90.884 0-68.585-344.74-279.286-257.483-84 34.787-195.286-292.27-356.527-131.029-64.257 64.257-292.27-195.286-379.527 15.415-34.787 83.959-344.74-68.585-344.74 159.469 0 90.884-344.74 68.585-257.442 279.245 34.787 83.959-292.229 195.286-130.988 356.529 64.257 64.257-195.286 292.232 15.415 379.482 83.959 34.787-68.585 344.735 159.469 344.735 90.884 0 68.585 344.735 279.245 257.445 83.959-34.787 195.286 292.232 356.529 130.988 64.257-64.257 292.232 195.286 379.482-15.415 34.787-83.959 344.735 68.585 344.735-159.469 0-90.884 344.735-68.585 257.445-279.245-34.787-83.959 292.232-195.286 130.988-356.527-64.257-64.257 195.286-292.229-15.415-379.486-83.959-34.787z"/></g><defs><filter id="a" width="1174" height="1174" x="0" y="0" color-interpolation-filters="sRGB" filterUnits="userSpaceOnUse"><feFlood flood-opacity="0" result="BackgroundImageFix"/><feBlend in="SourceGraphic" in2="BackgroundImageFix" result="shape"/><feGaussianBlur result="effect1_foregroundBlur_53_435" stdDeviation="50"/></filter></defs></svg>