<svg xmlns="http://www.w3.org/2000/svg" width="1263" height="1263" fill="none" viewBox="0 0 1263 1263"><g filter="url(#a)"><path fill="#51a2ff" fill-opacity=".4" d="M927.873 929.058c40.126-40.126 53.698-96.751 40.716-148.038 51.321 13.041 108.011-.519 148.171-40.681 60.64-60.635 60.64-158.943 0-219.578-39.92-39.925-96.18-53.562-147.262-40.91 11.39-50.27-2.485-105.108-41.625-144.249-40.216-40.216-97.005-53.759-148.383-40.628 13.614-51.669.168-108.99-40.339-149.498-60.635-60.635-158.944-60.635-219.579 0-40.266 40.267-53.793 97.148-40.578 148.577-50.36-11.526-105.352 2.324-144.578 41.549-39.144 39.144-53.018 93.989-41.622 144.262-51.096-12.674-107.379.958-147.318 40.897-60.635 60.635-60.635 158.943 0 219.578 40.176 40.176 96.89 53.732 148.227 40.668-12.988 51.29.583 107.921 40.713 148.051 39.061 39.061 93.756 52.959 143.942 41.694-12.122 50.748 1.616 106.418 41.214 146.008 60.635 60.64 158.944 60.64 219.579 0 39.832-39.83 53.498-95.92 40.996-146.907 51.205 12.848 107.681-.75 147.726-40.795"/></g><defs><filter id="a" width="1262.24" height="1262.24" x="0" y="0" color-interpolation-filters="sRGB" filterUnits="userSpaceOnUse"><feFlood flood-opacity="0" result="BackgroundImageFix"/><feBlend in="SourceGraphic" in2="BackgroundImageFix" result="shape"/><feGaussianBlur result="effect1_foregroundBlur_53_434" stdDeviation="50"/></filter></defs></svg>