<svg xmlns="http://www.w3.org/2000/svg" width="1610" height="1562" fill="none" viewBox="0 0 1610 1562"><path stroke="#f8fafc" stroke-opacity=".4" stroke-width="3" d="M125.066 1261.04c33.965 45.18 142.52 120.8 305.022 61.76 203.128-73.79 281.689-269.41 462.984-370.834 133.808-74.862 493.358-187.233 700.108-63.061" opacity=".053"/><path stroke="#f8fafc" stroke-opacity=".4" stroke-width="3" d="M91.566 1166.3c29.055 48.49 129.112 135.04 296.895 93.32 209.729-52.16 308.306-238.49 499.21-320.414 140.899-60.465 510.229-134.637 702.859 10.465" opacity=".105"/><path stroke="#f8fafc" stroke-opacity=".4" stroke-width="3" d="M66.257 1070.3c23.827 51.26 114.289 147.79 285.515 123.83 214.032-29.95 331.546-204.955 529.967-266.473 146.451-45.405 521.501-80.566 697.921 83.873" opacity=".158"/><path stroke="#f8fafc" stroke-opacity=".4" stroke-width="3" d="M49.228 973.873c18.338 53.467 98.214 158.927 271.006 152.997 215.99-7.41 351.154-169.173 554.918-209.614 150.398-29.848 527.068-25.612 685.328 156.374" opacity=".211"/><path stroke="#f8fafc" stroke-opacity=".4" stroke-width="3" d="M40.477 877.902c12.65 55.095 81.064 168.328 253.53 180.488 215.581 15.21 366.913-131.542 573.789-150.462 152.694-13.964 526.864 29.622 665.224 227.152" opacity=".263"/><path stroke="#f8fafc" stroke-opacity=".4" stroke-width="3" d="M39.914 783.249c6.82 56.116 63.025 175.878 233.274 206.002 212.812 37.659 378.654-92.47 586.374-89.662 153.308 2.073 520.878 84.531 637.838 295.441" opacity=".316"/><path stroke="#f8fafc" stroke-opacity=".4" stroke-width="3" d="M47.354 690.758c.918 56.521 44.295 181.503 210.463 229.257 207.71 59.694 386.245-52.383 592.533-27.878 152.26 18.087 509.19 138.513 603.46 360.493" opacity=".368"/><path stroke="#f8fafc" stroke-opacity=".4" stroke-width="3" d="M62.528 601.258c-4.996 56.308 25.08 185.139 185.346 250.001 200.332 81.078 389.605-11.723 592.201 34.211 149.532 33.903 491.925 190.98 562.475 421.6" opacity=".421"/><path stroke="#f8fafc" stroke-opacity=".4" stroke-width="3" d="M85.08 515.539c-10.855 55.477 5.59 186.746 158.198 268.005 190.76 101.575 388.696 29.066 585.381 95.926 145.169 49.347 469.261 241.35 515.331 478.08" opacity=".474"/><path stroke="#f8fafc" stroke-opacity=".4" stroke-width="3" d="M114.575 434.352c-16.593 54.038-13.96 186.307 129.318 283.073 179.097 120.958 383.528 69.537 572.148 156.589C955.256 938.266 1257.5 1163.1 1278.57 1403.35" opacity=".526"/><path stroke="#f8fafc" stroke-opacity=".4" stroke-width="3" d="M150.502 358.395c-22.151 52.008-33.358 183.828 99.02 295.04 165.473 139.016 374.159 109.246 552.646 215.537C933.904 947.424 1211 1202.62 1206.83 1443.75" opacity=".579"/><path stroke="#f8fafc" stroke-opacity=".4" stroke-width="3" d="M192.278 288.318c-27.466 49.408-52.391 179.333 67.637 303.774 150.036 155.551 360.691 147.757 527.089 272.123 122.814 91.792 371.716 374.555 342.366 613.925" opacity=".632"/><path stroke="#f8fafc" stroke-opacity=".4" stroke-width="3" d="M239.256 224.695c-32.48 46.266-70.849 172.875 35.514 309.18 132.954 170.382 343.27 184.65 495.756 325.729C883.073 963.73 1101.05 1270.96 1046.85 1505.96" opacity=".684"/><path stroke="#f8fafc" stroke-opacity=".4" stroke-width="3" d="M290.735 168.036c-37.138 42.617-88.532 164.522 3.001 311.198 114.416 183.346 322.088 219.52 458.993 375.765 101.046 115.32 285.711 443.651 207.243 671.701" opacity=".737"/><path stroke="#f8fafc" stroke-opacity=".4" stroke-width="3" d="M345.96 118.774c-41.39 38.502-105.244 154.367-29.544 309.808 94.624 194.301 297.377 251.984 417.2 421.684 88.438 125.251 237.777 471.084 135.896 689.674" opacity=".789"/><path stroke="#f8fafc" stroke-opacity=".4" stroke-width="3" d="M404.138 77.259c-45.187 33.964-120.802 142.519-61.766 305.022 73.796 203.127 269.409 281.688 370.837 462.983 74.861 133.809 187.233 493.356 63.061 700.106" opacity=".842"/><path stroke="#f8fafc" stroke-opacity=".4" stroke-width="3" d="M464.444 43.757c-48.49 29.055-135.038 129.112-93.311 296.895 52.159 209.729 238.488 308.306 320.41 499.21 60.465 140.901 134.637 510.228-10.465 702.858" opacity=".895"/><path stroke="#f8fafc" stroke-opacity=".4" stroke-width="3" d="M526.028 18.447c-51.262 23.828-147.795 114.29-123.834 285.515 29.95 214.032 204.955 331.547 266.473 529.968 45.405 146.449 80.566 521.51-83.877 697.92" opacity=".947"/><path stroke="#f8fafc" stroke-opacity=".4" stroke-width="3" d="M588.026 1.419c-53.471 18.339-158.931 98.214-153 271.006 7.414 215.991 169.177 351.154 209.617 554.919 29.848 150.393 25.612 527.066-156.37 685.326"/></svg>