<svg width="1133" height="984" viewBox="0 0 1133 984" fill="none" xmlns="http://www.w3.org/2000/svg">
<g clip-path="url(#clip0_1374_2162)">
<path d="M116.489 445.785C167.842 445.785 209.473 404.09 209.473 352.657C209.473 301.224 167.842 259.53 116.489 259.53C65.1353 259.53 23.5051 301.224 23.5051 352.657C23.5051 404.09 65.1353 445.785 116.489 445.785Z" fill="#CAD5E2"/>
<path d="M74.9482 915.398C116.341 915.398 149.896 881.791 149.896 840.334C149.896 798.877 116.341 765.27 74.9482 765.27C33.5555 765.27 0 798.877 0 840.334C0 881.791 33.5555 915.398 74.9482 915.398Z" fill="#CAD5E2"/>
<path d="M541.154 983.982C592.428 983.982 633.995 942.351 633.995 890.997C633.995 839.644 592.428 798.013 541.154 798.013C489.879 798.013 448.313 839.644 448.313 890.997C448.313 942.351 489.879 983.982 541.154 983.982Z" fill="#CAD5E2"/>
<path d="M468.118 337.297C499.234 337.297 524.459 312.034 524.459 280.869C524.459 249.705 499.234 224.441 468.118 224.441C437.002 224.441 411.777 249.705 411.777 280.869C411.777 312.034 437.002 337.297 468.118 337.297Z" fill="#CAD5E2"/>
<path d="M846.559 152.331C888.554 152.331 922.598 118.234 922.598 76.1743C922.598 34.1143 888.554 0.0178986 846.559 0.0178986C804.564 0.0178986 770.521 34.1143 770.521 76.1743C770.521 118.234 804.564 152.331 846.559 152.331Z" fill="#CAD5E2"/>
<path d="M1027.83 657.426C1085.9 657.426 1132.98 610.273 1132.98 552.107C1132.98 493.941 1085.9 446.788 1027.83 446.788C969.75 446.788 922.669 493.941 922.669 552.107C922.669 610.273 969.75 657.426 1027.83 657.426Z" fill="#CAD5E2"/>
<path d="M82.3126 750.536C77.5401 750.124 74.0188 745.917 74.4478 741.155C74.8589 736.375 79.0594 732.866 83.814 733.278C88.5866 733.69 92.09 737.897 91.6789 742.659C91.2678 747.224 87.389 750.661 82.8667 750.572C82.6879 750.572 82.4913 750.572 82.3126 750.536Z" fill="#CAD5E2"/>
<path d="M85.6015 713.084C80.829 712.655 77.3256 708.448 77.7367 703.686C78.1478 698.906 82.3662 695.397 87.103 695.809C91.8755 696.221 95.3968 700.445 94.9678 705.207C94.5746 709.79 90.6958 713.228 86.1556 713.12C85.9769 713.12 85.7802 713.084 85.6015 713.084Z" fill="#CAD5E2"/>
<path d="M91.5001 645.915C86.7276 645.503 83.2242 641.296 83.6353 636.534C84.0464 631.754 88.2648 628.227 93.0016 628.657C97.7741 629.069 101.295 633.276 100.884 638.038C100.473 642.621 96.5944 646.058 92.0721 645.951C91.8755 645.951 91.6967 645.951 91.5001 645.915Z" fill="#CAD5E2"/>
<path d="M98.7572 567.324C93.9847 566.912 90.4813 562.705 90.8924 557.943C91.3214 553.163 95.5219 549.654 100.277 550.066C105.049 550.478 108.553 554.703 108.141 559.447C107.73 564.048 103.851 567.467 99.3292 567.36C99.1505 567.36 98.9538 567.36 98.7572 567.324Z" fill="#CAD5E2"/>
<path d="M105.299 488.375C100.527 487.963 97.0055 483.738 97.4345 478.976C97.8456 474.196 102.046 470.687 106.801 471.099C111.573 471.529 115.077 475.736 114.666 480.498C114.272 485.081 110.394 488.518 105.871 488.411C105.675 488.411 105.478 488.375 105.299 488.375Z" fill="#CAD5E2"/>
<path d="M137.849 751.288C133.952 748.531 133.005 743.125 135.758 739.204C138.51 735.301 143.908 734.37 147.805 737.109C151.72 739.866 152.649 745.273 149.896 749.176C148.341 751.395 145.928 752.666 143.408 752.845C141.495 752.971 139.529 752.487 137.831 751.306L137.849 751.288Z" fill="#CAD5E2"/>
<path d="M159.442 720.532C155.527 717.775 154.598 712.368 157.332 708.466C160.085 704.545 165.483 703.614 169.398 706.353C173.294 709.11 174.242 714.517 171.489 718.437C169.916 720.639 167.521 721.91 165.001 722.089C163.07 722.233 161.104 721.731 159.424 720.55L159.442 720.532Z" fill="#CAD5E2"/>
<path d="M181.016 689.758C177.119 687.019 176.172 681.612 178.925 677.674C181.678 673.753 187.076 672.822 190.972 675.579C194.887 678.318 195.816 683.725 193.064 687.663C191.509 689.883 189.095 691.154 186.593 691.333C184.663 691.476 182.696 690.957 180.998 689.776L181.016 689.758Z" fill="#CAD5E2"/>
<path d="M246.634 596.039C242.719 593.282 241.79 587.876 244.525 583.973C247.277 580.052 252.675 579.104 256.59 581.861C260.487 584.618 261.434 590.024 258.681 593.945C257.108 596.164 254.713 597.436 252.193 597.615C250.28 597.74 248.314 597.257 246.616 596.075L246.634 596.039Z" fill="#CAD5E2"/>
<path d="M298.667 522.514C294.77 519.757 293.823 514.351 296.576 510.43C299.328 506.51 304.726 505.579 308.623 508.336C312.538 511.075 313.467 516.481 310.732 520.402C309.159 522.622 306.746 523.893 304.226 524.072C302.313 524.197 300.347 523.696 298.649 522.514H298.667Z" fill="#CAD5E2"/>
<path d="M352.13 446.394C348.215 443.637 347.286 438.248 350.038 434.328C352.773 430.407 358.171 429.476 362.086 432.233C365.983 434.972 366.93 440.379 364.177 444.299C362.604 446.519 360.209 447.79 357.689 447.969C355.776 448.095 353.81 447.593 352.112 446.412L352.13 446.394Z" fill="#CAD5E2"/>
<path d="M390.828 391.165C386.932 388.426 385.984 383.02 388.737 379.099C391.49 375.196 396.888 374.248 400.785 377.005C404.699 379.761 405.629 385.168 402.894 389.071C401.321 391.291 398.908 392.562 396.405 392.741C394.475 392.884 392.509 392.365 390.81 391.183L390.828 391.165Z" fill="#CAD5E2"/>
<path d="M412.421 360.409C408.506 357.652 407.577 352.246 410.33 348.343C413.064 344.422 418.463 343.491 422.377 346.23C426.274 348.987 427.221 354.394 424.468 358.315C422.895 360.516 420.5 361.788 417.98 361.967C416.067 362.092 414.101 361.609 412.403 360.427L412.421 360.409Z" fill="#CAD5E2"/>
<path d="M168.164 812.621C166.681 808.074 169.147 803.169 173.688 801.683C178.228 800.197 183.125 802.686 184.609 807.233C186.093 811.78 183.626 816.667 179.086 818.171C178.192 818.457 177.28 818.601 176.387 818.601C172.74 818.601 169.362 816.273 168.164 812.621Z" fill="#CAD5E2"/>
<path d="M203.788 801.45C202.305 796.885 204.789 791.998 209.33 790.494C213.87 789.008 218.767 791.497 220.251 796.044C221.735 800.591 219.268 805.496 214.71 806.982C213.816 807.268 212.922 807.412 212.029 807.412C208.382 807.412 204.986 805.102 203.788 801.45Z" fill="#CAD5E2"/>
<path d="M239.466 790.691C237.983 786.144 240.449 781.239 244.989 779.753C249.547 778.249 254.427 780.737 255.911 785.284C257.412 789.832 254.928 794.737 250.388 796.223C249.494 796.527 248.582 796.652 247.688 796.652C244.06 796.652 240.664 794.343 239.466 790.691Z" fill="#CAD5E2"/>
<path d="M275.144 780.093C273.642 775.546 276.127 770.64 280.667 769.154C285.207 767.669 290.105 770.139 291.589 774.686C293.072 779.233 290.605 784.139 286.065 785.625C285.172 785.929 284.26 786.072 283.366 786.072C279.72 786.054 276.341 783.745 275.144 780.093Z" fill="#CAD5E2"/>
<path d="M311.268 769.011C309.785 764.464 312.252 759.559 316.81 758.073C321.35 756.587 326.229 759.075 327.731 763.623C329.215 768.17 326.73 773.057 322.19 774.543C321.296 774.847 320.384 774.991 319.491 774.991C315.862 774.991 312.466 772.663 311.268 769.011Z" fill="#CAD5E2"/>
<path d="M346.946 758.252C345.463 753.705 347.929 748.817 352.469 747.314C357.01 745.828 361.907 748.316 363.391 752.863C364.892 757.411 362.408 762.316 357.868 763.802C356.974 764.088 356.062 764.231 355.168 764.231C351.522 764.231 348.144 761.904 346.946 758.252Z" fill="#CAD5E2"/>
<path d="M389.988 745.273C388.505 740.726 390.989 735.838 395.529 734.352C400.069 732.849 404.967 735.337 406.451 739.884C407.934 744.431 405.468 749.337 400.927 750.823C400.016 751.109 399.122 751.252 398.228 751.252C394.582 751.252 391.186 748.943 389.988 745.273Z" fill="#CAD5E2"/>
<path d="M440.43 729.895C438.947 725.33 441.413 720.442 445.972 718.956C450.512 717.453 455.391 719.941 456.893 724.488C458.376 729.035 455.892 733.941 451.352 735.427C450.458 735.713 449.546 735.856 448.653 735.856C445.024 735.856 441.628 733.547 440.43 729.895Z" fill="#CAD5E2"/>
<path d="M523.619 704.473C522.135 699.926 524.602 695.039 529.16 693.535C533.7 692.049 538.58 694.538 540.064 699.085C541.565 703.632 539.08 708.519 534.54 710.023C533.646 710.31 532.735 710.453 531.841 710.453C528.213 710.453 524.816 708.126 523.619 704.473Z" fill="#CAD5E2"/>
<path d="M976.293 440.755C974.595 436.279 976.829 431.266 981.298 429.566C985.749 427.865 990.754 430.121 992.452 434.578C994.15 439.054 991.916 444.049 987.447 445.767C985.838 446.376 984.158 446.483 982.585 446.143C979.797 445.553 977.384 443.601 976.293 440.755Z" fill="#CAD5E2"/>
<path d="M962.905 405.612C961.207 401.155 963.441 396.142 967.91 394.441C972.361 392.741 977.366 394.978 979.064 399.454C980.762 403.912 978.528 408.924 974.077 410.643C972.45 411.27 970.77 411.359 969.197 411.037C966.409 410.446 963.996 408.495 962.905 405.63V405.612Z" fill="#CAD5E2"/>
<path d="M932.608 325.929C930.91 321.454 933.144 316.441 937.613 314.74C942.063 313.04 947.068 315.277 948.766 319.753C950.464 324.211 948.23 329.223 943.761 330.924C942.153 331.551 940.473 331.658 938.882 331.318C936.093 330.727 933.68 328.776 932.59 325.929H932.608Z" fill="#CAD5E2"/>
<path d="M903.383 250.238C901.685 245.781 903.919 240.768 908.388 239.067C912.839 237.349 917.843 239.604 919.559 244.062C921.257 248.538 919.023 253.55 914.572 255.269C912.946 255.896 911.266 255.985 909.693 255.663C906.904 255.072 904.473 253.121 903.401 250.256L903.383 250.238Z" fill="#CAD5E2"/>
<path d="M882.648 194.867C880.95 190.391 883.185 185.378 887.653 183.678C892.104 181.977 897.109 184.215 898.807 188.69C900.505 193.148 898.271 198.161 893.802 199.861C892.193 200.488 890.513 200.595 888.94 200.255C886.152 199.664 883.721 197.713 882.648 194.867Z" fill="#CAD5E2"/>
<path d="M869.26 159.742C867.562 155.267 869.796 150.272 874.265 148.553C878.716 146.853 883.721 149.108 885.419 153.566C887.117 158.042 884.883 163.054 880.414 164.755C878.805 165.364 877.125 165.471 875.552 165.131C872.764 164.54 870.333 162.589 869.26 159.742Z" fill="#CAD5E2"/>
<path d="M686.582 656.03C685.098 651.483 687.565 646.577 692.105 645.092C696.663 643.588 701.543 646.076 703.026 650.623C704.528 655.17 702.043 660.076 697.503 661.562C696.609 661.866 695.698 661.991 694.804 661.991C691.158 661.991 687.779 659.682 686.582 656.03Z" fill="#CAD5E2"/>
<path d="M773.756 629.517C772.255 624.969 774.739 620.064 779.279 618.578C783.82 617.092 788.717 619.563 790.201 624.11C791.684 628.675 789.218 633.562 784.678 635.048C783.784 635.353 782.872 635.478 781.978 635.478C778.332 635.478 774.936 633.169 773.756 629.517Z" fill="#CAD5E2"/>
<path d="M849.098 606.655C847.614 602.108 850.099 597.203 854.639 595.717C859.179 594.231 864.059 596.702 865.56 601.249C867.044 605.814 864.559 610.701 860.019 612.205C859.125 612.491 858.214 612.635 857.32 612.635C853.691 612.635 850.295 610.307 849.098 606.655Z" fill="#CAD5E2"/>
<path d="M877.626 598.098C876.142 593.551 878.609 588.646 883.149 587.16C887.689 585.674 892.587 588.162 894.07 592.709C895.554 597.257 893.087 602.144 888.547 603.648C887.653 603.934 886.742 604.077 885.848 604.077C882.201 604.077 878.823 601.75 877.626 598.098Z" fill="#CAD5E2"/>
<path d="M545.265 908.828C543.317 909.276 541.279 909.419 539.188 909.186L72.9999 858.523C62.9723 857.431 55.733 848.408 56.8234 838.365C57.9137 828.322 66.9225 821.071 76.9502 822.163L543.138 872.827C553.166 873.919 560.405 882.941 559.314 892.985C558.456 900.933 552.629 907.127 545.265 908.828Z" fill="#CAD5E2"/>
<path d="M537.346 908.9C532.967 907.969 528.91 905.427 526.157 901.453C520.401 893.164 522.439 881.76 530.733 875.995L1017.4 537.105C1025.68 531.34 1037.07 533.381 1042.82 541.688C1048.58 549.977 1046.54 561.38 1038.25 567.145L551.575 906.035C547.267 909.043 542.119 909.92 537.346 908.9Z" fill="#CAD5E2"/>
<path d="M478.325 296.05C476.394 297.357 474.178 298.306 471.765 298.807L120.117 370.596C110.233 372.618 100.598 366.227 98.5785 356.327C96.5586 346.427 102.94 336.778 112.825 334.755L464.472 262.967C474.356 260.944 483.991 267.335 486.011 277.235C487.53 284.7 484.277 292.04 478.325 296.05Z" fill="#CAD5E2"/>
<path d="M468.118 299.165C464.079 299.165 460.021 297.823 456.643 295.084C448.814 288.728 447.598 277.217 453.944 269.358L656.552 18.869C662.898 11.0099 674.391 9.81046 682.238 16.1658C690.067 22.5211 691.283 34.0323 684.937 41.8914L482.328 292.38C478.718 296.838 473.445 299.165 468.136 299.165H468.118Z" fill="#CAD5E2"/>
<path d="M537.382 908.9C536.489 908.703 535.613 908.452 534.737 908.13C525.299 904.585 520.509 894.041 524.066 884.589L829.471 69.7474C833.01 60.295 843.539 55.4971 852.976 59.0597C862.414 62.6044 867.205 73.1488 863.648 82.6012L558.242 897.442C555.024 906.018 546.051 910.762 537.382 908.918V908.9Z" fill="#CAD5E2"/>
</g>
<defs>
<clipPath id="clip0_1374_2162">
<rect width="1133" height="984" fill="white"/>
</clipPath>
</defs>
</svg>
