<svg xmlns="http://www.w3.org/2000/svg" width="1133" height="984" fill="none" viewBox="0 0 1133 984"><g fill="#cad5e2" clip-path="url(#a)"><path d="M116.489 445.785c51.353 0 92.984-41.695 92.984-93.128s-41.631-93.127-92.984-93.127c-51.354 0-92.984 41.694-92.984 93.127s41.63 93.128 92.984 93.128M74.948 915.398c41.393 0 74.948-33.607 74.948-75.064s-33.555-75.064-74.948-75.064S0 798.877 0 840.334s33.556 75.064 74.948 75.064M541.154 983.982c51.274 0 92.841-41.631 92.841-92.985s-41.567-92.984-92.841-92.984c-51.275 0-92.841 41.631-92.841 92.984 0 51.354 41.566 92.985 92.841 92.985M468.118 337.297c31.116 0 56.341-25.263 56.341-56.428s-25.225-56.428-56.341-56.428-56.341 25.264-56.341 56.428c0 31.165 25.225 56.428 56.341 56.428M846.559 152.331c41.995 0 76.039-34.097 76.039-76.157S888.554.018 846.559.018s-76.038 34.096-76.038 76.156 34.043 76.157 76.038 76.157M1027.83 657.426c58.07 0 105.15-47.153 105.15-105.319s-47.08-105.319-105.15-105.319c-58.08 0-105.161 47.153-105.161 105.319s47.081 105.319 105.161 105.319M82.313 750.536a8.64 8.64 0 0 1-7.865-9.381 8.644 8.644 0 0 1 9.366-7.877c4.773.412 8.276 4.619 7.865 9.381-.411 4.565-4.29 8.002-8.812 7.913-.18 0-.376 0-.554-.036M85.602 713.084c-4.773-.429-8.276-4.636-7.865-9.398.41-4.78 4.63-8.289 9.366-7.877 4.773.412 8.294 4.636 7.865 9.398a8.64 8.64 0 0 1-8.812 7.913c-.18 0-.376-.036-.555-.036M91.5 645.915c-4.772-.412-8.276-4.619-7.865-9.381.411-4.78 4.63-8.307 9.367-7.877 4.772.412 8.293 4.619 7.882 9.381-.411 4.583-4.29 8.02-8.812 7.913-.197 0-.375 0-.572-.036M98.757 567.324c-4.772-.412-8.276-4.619-7.865-9.381.43-4.78 4.63-8.289 9.385-7.877 4.772.412 8.276 4.637 7.864 9.381-.411 4.601-4.29 8.02-8.812 7.913-.178 0-.375 0-.572-.036M105.299 488.375c-4.772-.412-8.294-4.637-7.865-9.399a8.644 8.644 0 0 1 9.367-7.877c4.772.43 8.276 4.637 7.865 9.399-.394 4.583-4.272 8.02-8.795 7.913-.196 0-.393-.036-.572-.036M137.849 751.288c-3.897-2.757-4.844-8.163-2.091-12.084 2.752-3.903 8.15-4.834 12.047-2.095a8.66 8.66 0 0 1 2.091 12.067 8.65 8.65 0 0 1-6.488 3.669 8.7 8.7 0 0 1-5.577-1.539zM159.442 720.532c-3.915-2.757-4.844-8.164-2.11-12.066 2.753-3.921 8.151-4.852 12.066-2.113 3.896 2.757 4.844 8.164 2.091 12.084a8.71 8.71 0 0 1-6.488 3.652 8.55 8.55 0 0 1-5.577-1.539zM181.016 689.758c-3.897-2.739-4.844-8.146-2.091-12.084 2.753-3.921 8.151-4.852 12.047-2.095 3.915 2.739 4.844 8.146 2.092 12.084a8.64 8.64 0 0 1-6.471 3.67c-1.93.143-3.897-.376-5.595-1.557zM246.634 596.039c-3.915-2.757-4.844-8.163-2.109-12.066 2.752-3.921 8.15-4.869 12.065-2.112 3.897 2.757 4.844 8.163 2.091 12.084a8.68 8.68 0 0 1-6.488 3.67 8.7 8.7 0 0 1-5.577-1.54zM298.667 522.514c-3.897-2.757-4.844-8.163-2.091-12.084 2.752-3.92 8.15-4.851 12.047-2.094 3.915 2.739 4.844 8.145 2.109 12.066a8.71 8.71 0 0 1-6.506 3.67 8.73 8.73 0 0 1-5.577-1.558zM352.13 446.394c-3.915-2.757-4.844-8.146-2.092-12.066 2.735-3.921 8.133-4.852 12.048-2.095 3.897 2.739 4.844 8.146 2.091 12.066a8.68 8.68 0 0 1-6.488 3.67 8.73 8.73 0 0 1-5.577-1.557zM390.828 391.165c-3.896-2.739-4.844-8.145-2.091-12.066 2.753-3.903 8.151-4.851 12.048-2.094 3.914 2.756 4.844 8.163 2.109 12.066a8.7 8.7 0 0 1-6.489 3.67c-1.93.143-3.896-.376-5.595-1.558zM412.421 360.409a8.657 8.657 0 0 1-2.091-12.066c2.734-3.921 8.133-4.852 12.047-2.113 3.897 2.757 4.844 8.164 2.091 12.085a8.71 8.71 0 0 1-6.488 3.652 8.7 8.7 0 0 1-5.577-1.54zM168.164 812.621c-1.483-4.547.983-9.452 5.524-10.938 4.54-1.486 9.437 1.003 10.921 5.55a8.68 8.68 0 0 1-5.523 10.938 8.9 8.9 0 0 1-2.699.43 8.665 8.665 0 0 1-8.223-5.98M203.788 801.45a8.703 8.703 0 0 1 5.542-10.956c4.54-1.486 9.437 1.003 10.921 5.55s-.983 9.452-5.541 10.938a8.8 8.8 0 0 1-2.681.43c-3.647 0-7.043-2.31-8.241-5.962M239.466 790.691c-1.483-4.547.983-9.452 5.523-10.938 4.558-1.504 9.438.984 10.922 5.531 1.501 4.548-.983 9.453-5.523 10.939a8.4 8.4 0 0 1-2.7.429 8.66 8.66 0 0 1-8.222-5.961M275.144 780.093c-1.502-4.547.983-9.453 5.523-10.939 4.54-1.485 9.438.985 10.922 5.532s-.984 9.453-5.524 10.939a8.4 8.4 0 0 1-2.699.447c-3.646-.018-7.025-2.327-8.222-5.979M311.268 769.011c-1.483-4.547.984-9.452 5.542-10.938 4.54-1.486 9.419 1.002 10.921 5.55 1.484 4.547-1.001 9.434-5.541 10.92a8.4 8.4 0 0 1-2.699.448 8.68 8.68 0 0 1-8.223-5.98M346.946 758.252c-1.483-4.547.983-9.435 5.523-10.938 4.541-1.486 9.438 1.002 10.922 5.549 1.501 4.548-.983 9.453-5.523 10.939a8.9 8.9 0 0 1-2.7.429 8.66 8.66 0 0 1-8.222-5.979M389.988 745.273a8.666 8.666 0 0 1 5.541-10.921c4.54-1.503 9.438.985 10.922 5.532s-.983 9.453-5.524 10.939a9 9 0 0 1-2.699.429 8.66 8.66 0 0 1-8.24-5.979M440.43 729.895c-1.483-4.565.983-9.453 5.542-10.939 4.54-1.503 9.419.985 10.921 5.532 1.483 4.547-1.001 9.453-5.541 10.939a8.9 8.9 0 0 1-2.699.429c-3.629 0-7.025-2.309-8.223-5.961M523.619 704.473a8.676 8.676 0 0 1 5.541-10.938c4.54-1.486 9.42 1.003 10.904 5.55 1.501 4.547-.984 9.434-5.524 10.938a8.8 8.8 0 0 1-2.699.43 8.68 8.68 0 0 1-8.222-5.98M976.293 440.755c-1.698-4.476.536-9.489 5.005-11.189 4.451-1.701 9.456.555 11.154 5.012a8.68 8.68 0 0 1-5.005 11.189 8.6 8.6 0 0 1-4.862.376 8.65 8.65 0 0 1-6.292-5.388M962.905 405.612c-1.698-4.457.536-9.47 5.005-11.171 4.451-1.7 9.456.537 11.154 5.013 1.698 4.458-.536 9.47-4.987 11.189a8.66 8.66 0 0 1-4.88.394 8.63 8.63 0 0 1-6.292-5.407zM932.608 325.929c-1.698-4.475.536-9.488 5.005-11.189 4.45-1.7 9.455.537 11.153 5.013 1.698 4.458-.536 9.47-5.005 11.171a8.48 8.48 0 0 1-4.879.394 8.64 8.64 0 0 1-6.292-5.389zM903.383 250.238c-1.698-4.457.536-9.47 5.005-11.171 4.451-1.718 9.455.537 11.171 4.995 1.698 4.476-.536 9.488-4.987 11.207a8.65 8.65 0 0 1-4.879.394 8.6 8.6 0 0 1-6.292-5.407zM882.648 194.867c-1.698-4.476.537-9.489 5.005-11.189 4.451-1.701 9.456.537 11.154 5.012 1.698 4.458-.536 9.471-5.005 11.171a8.43 8.43 0 0 1-4.862.394 8.62 8.62 0 0 1-6.292-5.388"/><path d="M869.26 159.742a8.68 8.68 0 0 1 5.005-11.189c4.451-1.7 9.456.555 11.154 5.013 1.698 4.476-.536 9.488-5.005 11.189a8.6 8.6 0 0 1-4.862.376 8.62 8.62 0 0 1-6.292-5.389M686.582 656.03c-1.484-4.547.983-9.453 5.523-10.938a8.63 8.63 0 0 1 10.921 5.531c1.502 4.547-.983 9.453-5.523 10.939a8.4 8.4 0 0 1-2.699.429 8.65 8.65 0 0 1-8.222-5.961M773.756 629.517c-1.501-4.548.983-9.453 5.523-10.939 4.541-1.486 9.438.985 10.922 5.532 1.483 4.565-.983 9.452-5.523 10.938a8.3 8.3 0 0 1-2.7.43c-3.646 0-7.042-2.309-8.222-5.961M849.098 606.655c-1.484-4.547 1.001-9.452 5.541-10.938s9.42.985 10.921 5.532a8.703 8.703 0 0 1-5.541 10.956 8.9 8.9 0 0 1-2.699.43 8.68 8.68 0 0 1-8.222-5.98M877.626 598.098c-1.484-4.547.983-9.452 5.523-10.938s9.438 1.002 10.921 5.549a8.68 8.68 0 0 1-5.523 10.939 8.9 8.9 0 0 1-2.699.429 8.66 8.66 0 0 1-8.222-5.979M545.265 908.828a18.1 18.1 0 0 1-6.077.358L73 858.523c-10.028-1.092-17.267-10.115-16.177-20.158s10.1-17.294 20.127-16.202l466.188 50.664c10.028 1.092 17.267 10.114 16.176 20.158-.858 7.948-6.685 14.142-14.049 15.843"/><path d="M537.346 908.9a18.17 18.17 0 0 1-11.189-7.447c-5.756-8.289-3.718-19.693 4.576-25.458l486.667-338.89c8.28-5.765 19.67-3.724 25.42 4.583 5.76 8.289 3.72 19.692-4.57 25.457l-486.675 338.89c-4.308 3.008-9.456 3.885-14.229 2.865M478.325 296.05a18.3 18.3 0 0 1-6.56 2.757l-351.648 71.789c-9.884 2.022-19.519-4.369-21.538-14.269s4.361-19.549 14.246-21.572l351.647-71.788c9.884-2.023 19.519 4.368 21.539 14.268a18.28 18.28 0 0 1-7.686 18.815"/><path d="M468.118 299.165a18.17 18.17 0 0 1-11.475-4.081c-7.829-6.356-9.045-17.867-2.699-25.726L656.552 18.869c6.346-7.86 17.839-9.059 25.686-2.703 7.829 6.355 9.045 17.866 2.699 25.725L482.328 292.38a18.23 18.23 0 0 1-14.192 6.785zM537.382 908.9a20 20 0 0 1-2.645-.77c-9.438-3.545-14.228-14.089-10.671-23.541L829.471 69.747c3.539-9.452 14.068-14.25 23.505-10.687 9.438 3.544 14.229 14.089 10.672 23.541L558.242 897.442c-3.218 8.576-12.191 13.32-20.86 11.476z"/></g><defs><clipPath id="a"><path fill="#fff" d="M0 0h1133v984H0z"/></clipPath></defs></svg>