<svg preserveAspectRatio="none" overflow="visible" style="display: block;" width="974.665" height="945.834" viewBox="0 0 974.665 945.834" fill="none" xmlns="http://www.w3.org/2000/svg">
<g id="Group 53">
<g id="Vector" filter="url(#filter0_f_0_36)">
<path d="M654.007 700.016C725.107 833.162 805.747 777.82 686.143 677.961C805.747 777.82 856.117 697.201 706.224 645.821C856.117 697.201 868.534 603.582 711.173 608.512C868.534 603.582 841.11 511.203 700.251 571.697C841.121 511.217 778.044 434.148 675.113 540.983C778.044 434.148 688.908 384.141 639.59 521.052C688.908 384.141 587.295 368.779 599.096 514.93C587.321 368.783 488.683 390.426 559.786 523.548C488.686 390.402 408.046 445.744 527.649 545.603C408.046 445.744 357.702 526.367 507.583 577.733C357.702 526.367 345.285 619.985 502.635 615.042C345.288 619.962 372.712 712.341 513.556 651.857C372.686 712.337 435.764 789.406 538.694 682.571C435.764 789.406 524.899 839.413 574.217 702.502C524.899 839.413 626.512 854.775 614.711 708.624C626.486 854.771 725.125 833.128 654.021 700.006L654.007 700.016Z" fill="#74D4FF" fill-opacity="0.4"/>
</g>
<g id="Looper-1">
<path id="Vector 83 copy_19" opacity="0" d="M722.128 219.249L722.442 220.698L722.128 219.249ZM465.734 342.695L466.268 344.095L465.734 342.695ZM867.868 270.999L869.188 270.329C855.534 247.362 807.076 205.299 721.813 217.8L722.128 219.249L722.442 220.698C806.391 208.389 853.546 249.798 866.547 271.668L867.868 270.999ZM722.128 219.249L721.813 217.8C668.589 225.604 628.534 249.298 589.768 274.573C550.95 299.882 513.491 326.719 465.2 341.295L465.734 342.695L466.268 344.095C515.06 329.368 552.919 302.236 591.587 277.024C630.308 251.779 669.909 228.4 722.442 220.698L722.128 219.249ZM465.734 342.695L465.2 341.295C429.538 352.059 365.333 362.326 298.504 361.052C231.619 359.777 162.471 346.949 116.627 311.848L115.712 312.972L114.798 314.097C161.505 349.857 231.54 362.704 298.615 363.982C365.745 365.262 430.275 354.959 466.268 344.095L465.734 342.695Z" fill="#F8FAFC" fill-opacity="0.4"/>
<path id="Vector 83 copy_18" opacity="0.0526316" d="M736.81 250.705L736.952 252.184L736.81 250.705ZM466.37 349.27L466.732 350.721L466.37 349.27ZM876.153 315.507L877.535 314.953C866.612 290.913 823.212 244.745 736.667 249.226L736.81 250.705L736.952 252.184C822.206 247.769 864.381 293.193 874.771 316.06L876.153 315.507ZM736.81 250.705L736.667 249.226C682.637 252.024 639.874 271.788 598.204 293.243C556.48 314.725 515.926 337.851 466.008 347.819L466.37 349.27L466.732 350.721C517.157 340.652 558.137 317.276 599.703 295.875C641.324 274.446 683.608 254.946 736.952 252.184L736.81 250.705ZM466.37 349.27L466.008 347.819C429.144 355.18 363.853 359.401 297.304 351.941C230.699 344.475 163.197 325.347 121.583 286.307L120.556 287.354L119.53 288.402C161.923 328.172 230.297 347.396 297.081 354.883C363.922 362.375 429.534 358.149 466.732 350.721L466.37 349.27Z" fill="#F8FAFC" fill-opacity="0.4"/>
<path id="Vector 83 copy_17" opacity="0.105263" d="M748.88 282.759L748.846 284.248L748.88 282.759ZM467.357 355.362L467.542 356.845L467.357 355.362ZM880.3 359.902L881.735 359.472C873.666 334.624 835.798 284.853 748.914 281.27L748.88 282.759L748.846 284.248C834.466 287.779 871.197 336.716 878.866 360.333L880.3 359.902ZM748.88 282.759L748.914 281.27C694.668 279.033 649.663 294.652 605.546 312.05C561.374 329.47 518.171 348.63 467.172 353.88L467.357 355.362L467.542 356.845C519.05 351.542 562.701 332.177 606.71 314.821C650.774 297.444 695.278 282.038 748.846 284.248L748.88 282.759ZM467.357 355.362L467.172 353.88C429.511 357.757 363.85 355.885 298.312 342.32C232.719 328.744 167.604 303.526 130.677 260.975L129.541 261.932L128.405 262.89C166.02 306.234 231.985 331.625 297.749 345.237C363.57 358.86 429.546 360.756 467.542 356.845L467.357 355.362Z" fill="#F8FAFC" fill-opacity="0.4"/>
<path id="Vector 83 copy_16" opacity="0.157895" d="M758.277 315.161L758.066 316.64L758.277 315.161ZM468.755 361.008L468.76 362.501L468.755 361.008ZM880.334 403.802L881.811 403.501C876.688 378.121 844.765 325.29 758.487 313.683L758.277 315.161L758.066 316.64C843.106 328.081 873.99 379.992 878.856 404.102L880.334 403.802ZM758.277 315.161L758.487 313.683C704.618 306.435 657.864 317.741 611.783 330.892C565.645 344.06 520.267 359.042 468.749 359.516L468.755 361.008L468.76 362.501C520.788 362.022 566.634 346.879 612.602 333.76C658.627 320.624 704.861 309.482 758.066 316.64L758.277 315.161ZM468.755 361.008L468.749 359.516C430.704 359.866 365.394 351.922 301.587 332.4C237.724 312.862 175.712 281.829 143.877 236.234L142.637 237.087L141.396 237.941C173.823 284.384 236.658 315.664 300.683 335.252C364.762 354.857 430.381 362.853 468.76 362.501L468.755 361.008Z" fill="#F8FAFC" fill-opacity="0.4"/>
<path id="Vector 83 copy_15" opacity="0.210526" d="M764.962 347.663L764.576 349.111L764.962 347.663ZM470.613 366.251L470.441 367.733L470.613 366.251ZM876.319 446.829L877.827 446.666C875.708 421.035 850.079 365.718 765.348 346.215L764.962 347.663L764.576 349.111C848.1 368.336 872.798 422.649 874.81 446.992L876.319 446.829ZM764.962 347.663L765.348 346.215C712.442 334.038 664.449 340.906 616.91 349.666C569.312 358.437 522.256 369.078 470.785 364.77L470.613 366.251L470.441 367.733C522.42 372.083 569.959 361.327 617.383 352.588C664.865 343.838 712.322 337.083 764.576 349.111L764.962 347.663ZM470.613 366.251L470.785 364.77C432.775 361.589 368.532 347.659 307.155 322.394C245.724 297.108 187.497 260.603 161.104 212.462L159.766 213.197L158.429 213.931C185.313 262.966 244.332 299.792 305.917 325.142C367.555 350.513 432.098 364.523 470.441 367.733L470.613 366.251Z" fill="#F8FAFC" fill-opacity="0.4"/>
<path id="Vector 83 copy_14" opacity="0.263158" d="M768.93 380.011L768.376 381.408L768.93 380.011ZM472.98 371.136L472.635 372.587L472.98 371.136ZM868.367 488.616L869.892 488.597C870.801 463.001 851.749 405.801 769.485 378.614L768.93 380.011L768.376 381.408C849.461 408.206 867.704 464.321 866.841 488.635L868.367 488.616ZM768.93 380.011L769.485 378.614C718.121 361.638 669.413 363.995 620.936 368.268C572.398 372.547 524.183 378.729 473.324 369.686L472.98 371.136L472.635 372.587C523.997 381.719 572.711 375.467 621.07 371.204C669.489 366.936 717.646 364.642 768.376 381.408L768.93 380.011ZM472.98 371.136L473.324 369.686C435.766 363.008 373.296 343.246 315.022 312.516C256.698 281.76 202.894 240.182 182.232 190.025L180.81 190.625L179.388 191.225C200.434 242.315 254.991 284.285 313.463 315.119C371.985 345.98 434.746 365.85 472.635 372.587L472.98 371.136Z" fill="#F8FAFC" fill-opacity="0.4"/>
<path id="Vector 83 copy_13" opacity="0.315789" d="M770.205 411.954L769.49 413.281L770.205 411.954ZM475.895 375.714L475.386 377.115L475.895 375.714ZM856.631 528.808L858.159 528.938C862.083 503.662 849.82 445.203 770.919 410.626L770.205 411.954L769.49 413.281C847.243 447.355 858.834 504.655 855.104 528.678L856.631 528.808ZM770.205 411.954L770.919 410.626C721.657 389.038 672.766 386.857 623.882 386.596C574.937 386.335 526.091 387.991 476.404 374.313L475.895 375.714L475.386 377.115C525.57 390.929 574.925 389.25 623.689 389.51C672.515 389.77 720.843 391.963 769.49 413.281L770.205 411.954ZM475.895 375.714L476.404 374.313C439.71 364.213 379.698 338.835 325.167 302.977C270.59 267.089 221.8 220.895 207.096 169.273L205.603 169.724L204.11 170.176C219.088 222.761 268.587 269.417 323.307 305.399C378.073 341.411 438.366 366.924 475.386 377.115L475.895 375.714Z" fill="#F8FAFC" fill-opacity="0.4"/>
<path id="Vector 83 copy_12" opacity="0.368421" d="M768.839 443.247L767.976 444.488L768.839 443.247ZM479.394 380.039L478.731 381.373L479.394 380.039ZM841.309 567.07L842.821 567.354C849.716 542.678 844.38 483.597 769.701 442.005L768.839 443.247L767.976 444.488C841.54 485.459 846.356 543.314 839.797 566.786L841.309 567.07ZM768.839 443.247L769.701 442.005C723.08 416.039 674.54 409.343 625.785 404.552C576.967 399.755 528.028 396.865 480.057 378.704L479.394 380.039L478.731 381.373C527.19 399.719 576.647 402.633 625.281 407.412C673.979 412.198 721.946 418.852 767.976 444.488L768.839 443.247ZM479.394 380.039L480.057 378.704C444.631 365.293 387.735 334.578 337.545 293.986C287.313 253.359 244.072 203.058 235.487 150.536L233.942 150.827L232.397 151.119C241.142 204.624 285.042 255.456 335.41 296.192C385.82 336.963 442.985 367.84 478.731 381.373L479.394 380.039Z" fill="#F8FAFC" fill-opacity="0.4"/>
<path id="Vector 83 copy_11" opacity="0.421053" d="M764.914 473.649L763.917 474.79L764.914 473.649ZM483.506 384.166L482.702 385.42L483.506 384.166ZM822.634 603.085L824.111 603.524C833.898 579.721 835.551 520.665 765.911 472.509L764.914 473.649L763.917 474.79C832.484 522.205 830.476 579.98 821.156 602.646L822.634 603.085ZM764.914 473.649L765.911 472.509C722.439 442.447 674.78 431.309 626.689 422.039C578.532 412.757 530.037 405.356 484.31 382.911L483.506 384.166L482.702 385.42C528.904 408.097 577.924 415.572 625.895 424.818C673.93 434.077 721.011 445.12 763.917 474.79L764.914 473.649ZM483.506 384.166L484.31 382.911C450.541 366.336 397.385 330.623 352.087 285.742C306.75 240.824 269.532 186.968 267.16 134.122L265.583 134.244L264.006 134.365C266.423 188.205 304.241 242.658 349.706 287.704C395.209 332.787 448.621 368.691 482.702 385.42L483.506 384.166Z" fill="#F8FAFC" fill-opacity="0.4"/>
<path id="Vector 83 copy_10" opacity="0.473684" d="M758.542 502.933L757.426 503.962L758.542 502.933ZM488.253 388.154L487.322 389.317L488.253 388.154ZM800.878 636.563L802.302 637.156C814.868 614.489 823.497 556.106 759.658 501.905L758.542 502.933L757.426 503.962C820.243 557.294 811.438 614.356 799.455 635.97L800.878 636.563ZM758.542 502.933L759.658 501.905C719.811 468.075 673.554 452.615 626.653 438.969C579.686 425.304 532.167 413.473 489.184 386.992L488.253 388.154L487.322 389.317C530.762 416.079 578.808 428.034 625.589 441.646C672.437 455.276 718.113 470.584 757.426 503.962L758.542 502.933ZM488.253 388.154L489.184 386.992C457.443 367.436 408.61 327.117 368.698 278.44C328.755 229.724 297.967 172.905 301.833 120.314L300.246 120.26L298.66 120.206C294.722 173.791 326.044 231.269 366.109 280.133C406.205 329.035 455.278 369.575 487.322 389.317L488.253 388.154Z" fill="#F8FAFC" fill-opacity="0.4"/>
<path id="Vector 83 copy_9" opacity="0.526316" d="M749.858 530.882L748.639 531.788V531.788L749.858 530.882ZM493.65 392.065L492.606 393.126L493.65 392.065ZM776.347 667.242L777.696 667.985C792.9 646.702 808.415 589.632 751.077 529.975L749.858 530.882L748.639 531.788C805.018 590.446 789.517 646.173 774.998 666.499L776.347 667.242ZM749.858 530.882L751.077 529.975C715.292 492.745 670.943 473.131 625.747 455.258C580.483 437.358 534.461 421.229 494.695 391.003L493.65 392.065L492.606 393.126C532.808 423.682 579.353 439.988 624.433 457.814C669.579 475.668 713.349 495.072 748.639 531.788L749.858 530.882ZM493.65 392.065L494.695 391.003C465.328 368.683 421.353 324.199 387.265 272.261C353.152 220.283 329.13 161.124 339.191 109.366L337.619 109.133L336.048 108.901C325.796 161.643 350.278 221.52 384.503 273.667C418.753 325.854 462.949 370.585 492.606 393.126L493.65 392.065Z" fill="#F8FAFC" fill-opacity="0.4"/>
<path id="Vector 83 copy_8" opacity="0.578947" d="M739.024 557.292L737.719 558.069L739.024 557.292ZM499.705 395.958L498.56 396.911L499.705 395.958ZM749.376 694.888L750.632 695.774C768.3 676.108 790.537 620.98 740.33 556.515L739.024 557.292L737.719 558.069C787.046 621.406 765.023 675.188 748.121 694.002L749.376 694.888ZM739.024 557.292L740.33 556.515C709.001 516.289 667.045 492.734 624.049 470.83C580.984 448.891 536.964 428.642 500.849 395.005L499.705 395.958L498.56 396.911C535.084 430.928 579.62 451.407 622.503 473.253C665.454 495.134 706.839 518.419 737.719 558.069L739.024 557.292ZM499.705 395.958L500.849 395.005C474.178 370.165 435.542 322.007 407.652 267.377C379.741 212.707 362.747 151.858 378.891 101.498L377.359 101.089L375.827 100.68C359.374 152.003 376.746 213.621 404.754 268.482C432.783 323.383 471.618 371.818 498.56 396.911L499.705 395.958Z" fill="#F8FAFC" fill-opacity="0.4"/>
<path id="Vector 83 copy_7" opacity="0.631579" d="M726.228 581.978L724.852 582.621L726.228 581.978ZM506.418 399.895L505.188 400.734L506.418 399.895ZM720.329 719.302L721.472 720.322C741.408 702.486 770.124 649.908 727.604 581.334L726.228 581.978L724.852 582.621C766.592 649.936 738.291 701.189 719.186 718.283L720.329 719.302ZM726.228 581.978L727.604 581.334C701.076 538.552 661.974 511.312 621.648 485.618C581.254 459.88 539.718 435.733 507.648 399.055L506.418 399.895L505.188 400.734C537.631 437.84 579.669 462.269 619.886 487.895C660.171 513.563 698.717 540.473 724.852 582.621L726.228 581.978ZM506.418 399.895L507.648 399.055C483.966 371.969 451.09 320.664 429.702 263.942C408.299 207.181 398.517 145.309 420.567 96.8993L419.099 96.319L417.63 95.7387C395.155 145.078 405.225 207.765 426.709 264.74C448.207 321.754 481.254 373.362 505.188 400.734L506.418 399.895Z" fill="#F8FAFC" fill-opacity="0.4"/>
<path id="Vector 83 copy_6" opacity="0.684211" d="M711.675 604.773L710.244 605.279L711.675 604.773ZM513.784 403.935L512.479 404.657L513.784 403.935ZM689.59 740.322L690.603 741.462C712.584 725.648 747.467 676.2 713.106 604.267L711.675 604.773L710.244 605.279C743.946 675.832 709.679 723.999 688.577 739.181L689.59 740.322ZM711.675 604.773L713.106 604.267C691.672 559.395 655.853 528.767 618.64 499.564C581.36 470.309 542.762 442.53 515.088 403.214L513.784 403.935L512.479 404.657C540.486 444.447 579.564 472.56 616.675 501.684C653.853 530.859 689.139 561.097 710.244 605.279L711.675 604.773ZM513.784 403.935L515.088 403.214C494.651 374.18 467.896 320.291 453.243 262.099C438.58 203.869 436.114 141.651 463.83 95.7217L462.447 94.9792L461.064 94.2368C432.814 141.053 435.468 204.12 450.191 262.585C464.923 321.088 491.819 375.305 512.479 404.657L513.784 403.935Z" fill="#F8FAFC" fill-opacity="0.4"/>
<path id="Vector 83 copy_5" opacity="0.736842" d="M695.592 625.532L694.121 625.9L695.592 625.532ZM521.787 408.141L520.421 408.741L521.787 408.141ZM657.563 757.82L658.431 759.067C682.214 745.443 722.881 699.672 697.063 625.165L695.592 625.532L694.121 625.9C719.423 698.916 679.565 743.473 656.696 756.574L657.563 757.82ZM695.592 625.532L697.063 625.165C680.96 578.695 648.818 545.013 615.126 512.622C581.369 480.169 546.131 449.065 523.154 407.541L521.787 408.141L520.421 408.741C543.682 450.779 579.371 482.27 612.97 514.572C646.633 546.935 678.274 580.168 694.121 625.9L695.592 625.532ZM521.787 408.141L523.154 407.541C506.186 376.877 485.843 320.996 478.083 261.971C470.319 202.911 475.196 141.028 508.272 98.0811L506.996 97.1891L505.72 96.297C472.003 140.076 467.212 202.832 475.009 262.147C482.812 321.498 503.261 377.73 520.421 408.741L521.787 408.141Z" fill="#F8FAFC" fill-opacity="0.4"/>
<path id="Vector 83 copy_4" opacity="0.789474" d="M678.223 644.131L676.727 644.359L678.223 644.131ZM530.409 412.567L528.991 413.043L530.409 412.567ZM624.667 771.708L625.376 773.043C650.7 761.755 696.704 720.166 679.72 643.903L678.223 644.131L676.727 644.359C693.359 719.039 648.345 759.503 623.958 770.373L624.667 771.708ZM678.223 644.131L679.72 643.903C669.128 596.345 641.017 559.977 611.214 524.752C581.351 489.457 549.857 455.368 531.827 412.092L530.409 412.567L528.991 413.043C547.251 456.869 579.159 491.392 608.878 526.518C638.657 561.714 666.308 597.578 676.727 644.359L678.223 644.131ZM530.409 412.567L531.827 412.092C518.512 380.134 504.802 322.872 504.02 263.661C503.238 204.417 515.402 143.547 553.477 104.053L552.325 103.027L551.174 102.001C512.36 142.262 500.173 204.018 500.959 263.533C501.745 323.082 515.521 380.713 528.991 413.043L530.409 412.567Z" fill="#F8FAFC" fill-opacity="0.4"/>
<path id="Vector 83 copy_3" opacity="0.842105" d="M659.825 660.47L658.317 660.558L659.825 660.47ZM539.621 417.271L538.163 417.619L539.621 417.271ZM591.329 781.939L591.869 783.343C618.458 774.509 669.291 737.561 661.334 660.382L659.825 660.47L658.317 660.558C666.104 736.088 616.424 772.018 590.788 780.535L591.329 781.939ZM659.825 660.47L661.334 660.382C656.372 612.257 632.603 573.602 607.015 535.93C581.374 498.179 553.967 461.479 541.079 416.924L539.621 417.271L538.163 417.619C551.218 462.752 578.993 499.929 604.509 537.495C630.077 575.139 653.438 613.239 658.317 660.558L659.825 660.47ZM539.621 417.271L541.079 416.924C531.562 384.022 524.634 326.006 530.838 267.257C537.044 208.477 556.361 149.284 599.017 113.675L598.004 112.533L596.992 111.391C553.506 147.693 534.057 207.772 527.821 266.834C521.581 325.927 528.532 384.324 538.163 417.619L539.621 417.271Z" fill="#F8FAFC" fill-opacity="0.4"/>
<path id="Vector 83 copy_2" opacity="0.894737" d="M640.667 674.474L639.16 674.423L640.667 674.474ZM549.39 422.304L547.903 422.52L549.39 422.304ZM557.98 788.503L558.346 789.956C585.91 783.67 641.012 751.77 642.174 674.524L640.667 674.474L639.16 674.423C638.022 749.98 584.217 780.985 557.615 787.051L557.98 788.503ZM640.667 674.474L642.174 674.524C642.899 626.362 623.734 585.845 602.641 546.137C581.504 506.345 558.483 467.435 550.877 422.088L549.39 422.304L547.903 422.52C555.609 468.464 578.945 507.888 599.978 547.482C621.055 587.161 639.872 627.083 639.16 674.423L640.667 674.474ZM549.39 422.304L550.877 422.088C545.261 388.603 545.19 330.467 558.309 272.822C571.436 215.149 597.693 158.281 644.463 126.946L643.601 125.707L642.739 124.469C595.057 156.414 568.559 214.155 555.367 272.115C542.169 330.103 542.218 388.626 547.903 422.52L549.39 422.304Z" fill="#F8FAFC" fill-opacity="0.4"/>
<path id="Vector 83 copy_1" opacity="0.947368" d="M621.025 686.092L619.532 685.903L621.025 686.092ZM559.676 427.715L558.171 427.796L559.676 427.715ZM525.054 791.434L525.242 792.913C553.484 789.241 612.246 762.739 622.519 686.281L621.025 686.092L619.532 685.903C609.487 760.668 552.139 786.408 524.867 789.954L525.054 791.434ZM621.025 686.092L622.519 686.281C628.924 638.612 614.574 596.677 598.208 555.369C581.806 513.972 563.422 473.277 561.18 427.634L559.676 427.715L558.171 427.796C560.442 474.047 579.083 515.284 595.402 556.473C611.757 597.752 625.826 639.058 619.532 685.903L621.025 686.092ZM559.676 427.715L561.18 427.634C559.525 393.93 566.311 336.31 586.203 280.4C606.105 224.463 639.015 170.541 689.387 143.824L688.682 142.509L687.976 141.195C636.623 168.432 603.365 223.201 583.362 279.422C563.35 335.67 556.495 393.676 558.171 427.796L559.676 427.715Z" fill="#F8FAFC" fill-opacity="0.4"/>
<path id="Vector 83 copy" d="M601.183 695.303L599.716 694.978L601.183 695.303ZM570.432 433.549L568.922 433.491L570.432 433.549ZM492.979 790.802L492.99 792.287C521.605 791.267 583.377 770.453 602.649 695.627L601.183 695.303L599.716 694.978C580.873 768.137 520.607 788.331 492.968 789.316L492.979 790.802ZM601.183 695.303L602.649 695.627C614.664 648.978 605.289 606.086 593.828 563.63C582.342 521.082 568.795 479.048 571.942 433.606L570.432 433.549L568.922 433.491C565.734 479.539 579.473 522.137 590.901 564.47C602.355 606.897 611.523 649.137 599.716 694.978L601.183 695.303ZM570.432 433.549L571.942 433.606C574.265 400.051 587.834 343.577 614.281 290.012C640.74 236.422 679.944 186.035 733.366 164.229L732.82 162.858L732.275 161.488C677.811 183.72 638.159 234.915 611.565 288.779C584.958 342.668 571.275 399.52 568.922 433.491L570.432 433.549Z" fill="#F8FAFC" fill-opacity="0.4"/>
</g>
</g>
<defs>
<filter id="filter0_f_0_36" x="289.805" y="311.69" width="634.205" height="600.174" filterUnits="userSpaceOnUse" color-interpolation-filters="sRGB">
<feFlood flood-opacity="0" result="BackgroundImageFix"/>
<feBlend mode="normal" in="SourceGraphic" in2="BackgroundImageFix" result="shape"/>
<feGaussianBlur stdDeviation="50" result="effect1_foregroundBlur_0_36"/>
</filter>
</defs>
</svg>
