<svg xmlns="http://www.w3.org/2000/svg" width="555" height="555" fill="none" viewBox="0 0 555 555"><g filter="url(#a)"><path fill="#51a2ff" fill-opacity=".4" d="M375.993 376.388c13.377-13.377 17.902-32.254 13.574-49.352 17.11 4.347 36.009-.173 49.398-13.562 20.214-20.214 20.214-52.988 0-73.202-13.31-13.311-32.066-17.857-49.095-13.639 3.797-16.758-.828-35.04-13.877-48.089-13.407-13.407-32.339-17.922-49.467-13.544 4.538-17.226.056-36.335-13.448-49.839-20.215-20.215-52.988-20.215-73.203 0-13.424 13.424-17.933 32.386-13.528 49.532-16.788-3.843-35.121.774-48.198 13.851-13.05 13.05-17.675 31.334-13.876 48.094-17.034-4.226-35.798.319-49.112 13.634-20.215 20.214-20.215 52.988 0 73.202 13.393 13.393 32.301 17.913 49.415 13.557-4.33 17.099.194 35.979 13.573 49.357 13.022 13.022 31.256 17.655 47.986 13.9-4.041 16.918.539 35.476 13.74 48.677 20.215 20.214 52.988 20.214 73.203 0 13.279-13.279 17.835-31.979 13.667-48.977 17.07 4.283 35.898-.25 49.248-13.6"/></g><defs><filter id="a" width="554.125" height="554.125" x="0" y="0" color-interpolation-filters="sRGB" filterUnits="userSpaceOnUse"><feFlood flood-opacity="0" result="BackgroundImageFix"/><feBlend in="SourceGraphic" in2="BackgroundImageFix" result="shape"/><feGaussianBlur result="effect1_foregroundBlur_53_436" stdDeviation="50"/></filter></defs></svg>