<svg width="34" height="34" viewBox="0 0 34 34" fill="none" xmlns="http://www.w3.org/2000/svg">
<path d="M10.4337 18.4983C10.3872 19.3652 10.6848 20.2154 11.2618 20.864C11.8388 21.5127 12.6486 21.9073 13.515 21.9621C14.3795 21.9046 15.1866 21.5088 15.7613 20.8605C16.3361 20.2122 16.6322 19.3635 16.5856 18.4983C16.6323 17.632 16.3365 16.7821 15.762 16.1321C15.1875 15.4821 14.3804 15.084 13.515 15.0239C12.6476 15.0814 11.8379 15.4783 11.2611 16.1286C10.6844 16.7789 10.3871 17.6303 10.4337 18.4983ZM14.4606 18.4983C14.4606 19.2208 14.025 19.8371 13.515 19.8371C13.005 19.8371 12.5587 19.2208 12.5587 18.4983C12.5587 17.7758 12.9943 17.1489 13.515 17.1489C14.0356 17.1489 14.4606 17.7652 14.4606 18.4983ZM20.485 15.0239C19.6195 15.084 18.8124 15.4821 18.2379 16.1321C17.6634 16.7821 17.3676 17.632 17.4143 18.4983C17.3677 19.3635 17.6639 20.2122 18.2386 20.8605C18.8134 21.5088 19.6204 21.9046 20.485 21.9621C21.3514 21.9073 22.1611 21.5127 22.7381 20.864C23.3152 20.2154 23.6128 19.3652 23.5662 18.4983C23.6128 17.6303 23.3156 16.7789 22.7388 16.1286C22.1621 15.4783 21.3523 15.0814 20.485 15.0239ZM20.485 19.8371C19.975 19.8371 19.5393 19.2208 19.5393 18.4983C19.5393 17.7758 19.975 17.1489 20.485 17.1489C20.995 17.1489 21.4412 17.7652 21.4412 18.4983C21.4412 19.2314 21.0056 19.8371 20.485 19.8371Z" fill="black"/>
<path d="M28.2944 11.1882L28.2201 11.0925V10.9863C26.3757 8.7463 23.8305 7.19297 20.9951 6.57692C20.8577 6.53722 20.7137 6.52566 20.5718 6.54294C20.4298 6.56021 20.2928 6.60596 20.169 6.67744C20.0451 6.74892 19.937 6.84467 19.851 6.95894C19.7651 7.07321 19.7031 7.20366 19.6687 7.34246C19.6344 7.48127 19.6284 7.62559 19.6511 7.76676C19.6739 7.90793 19.7249 8.04305 19.8012 8.16404C19.8774 8.28502 19.9772 8.38937 20.0948 8.47084C20.2123 8.55231 20.345 8.60922 20.4851 8.63816C22.8298 9.14086 24.9412 10.4077 26.4882 12.24C27.9213 15.5291 28.6696 19.0755 28.6876 22.6632C27.2078 24.0433 25.3647 24.9722 23.3751 25.3407V24.7988C24.6849 24.2906 25.9128 23.5925 27.0194 22.7269C27.2406 22.5508 27.3828 22.294 27.4147 22.0131C27.4466 21.7321 27.3655 21.45 27.1894 21.2288C27.0133 21.0076 26.7565 20.8654 26.4756 20.8335C26.1946 20.8016 25.9125 20.8827 25.6913 21.0588C23.1973 22.9501 20.1284 23.9256 17.0001 23.8213C13.897 23.9084 10.8571 22.9339 8.38318 21.0588C8.27365 20.9716 8.14801 20.9068 8.01345 20.8682C7.87888 20.8295 7.73802 20.8177 7.59891 20.8335C7.31795 20.8654 7.06117 21.0076 6.88505 21.2288C6.70893 21.45 6.6279 21.7321 6.65978 22.0131C6.69166 22.294 6.83384 22.5508 7.05505 22.7269C8.15408 23.5923 9.37498 24.2905 10.6782 24.7988V25.3407C8.68851 24.9722 6.84542 24.0433 5.36568 22.6632C5.39032 19.074 6.14589 15.5275 7.5863 12.24C9.13325 10.4077 11.2447 9.14086 13.5894 8.63816C13.8533 8.56192 14.0774 8.38645 14.2147 8.14856C14.352 7.91068 14.3919 7.62886 14.3259 7.36223C14.2599 7.0956 14.0933 6.86488 13.8609 6.71847C13.6285 6.57205 13.3484 6.52132 13.0794 6.57692C10.244 7.19297 7.69878 8.7463 5.85443 10.9863C5.85443 10.9863 5.85443 11.0607 5.85443 11.0925L5.78005 11.1882C3.7188 15.4382 3.48505 19.3163 3.26193 23.0244C3.25232 23.1748 3.27482 23.3256 3.32795 23.4666C3.38107 23.6077 3.4636 23.7358 3.57005 23.8425C5.72951 26.0434 8.61337 27.3872 11.6876 27.625C11.9663 27.6239 12.2334 27.5132 12.4313 27.3169C12.5317 27.2185 12.6116 27.1012 12.6663 26.9717C12.721 26.8422 12.7495 26.7031 12.7501 26.5625V25.5C15.5456 26.154 18.4545 26.154 21.2501 25.5V26.5625C21.2506 26.7031 21.2791 26.8422 21.3338 26.9717C21.3885 27.1012 21.4684 27.2185 21.5688 27.3169C21.7667 27.5132 22.0338 27.6239 22.3126 27.625C25.417 27.4268 28.3418 26.1004 30.5363 23.8957C30.6428 23.789 30.7253 23.6608 30.7784 23.5198C30.8315 23.3787 30.854 23.228 30.8444 23.0775C30.5894 19.3163 30.3557 15.4807 28.2944 11.1882Z" fill="black"/>
<path d="M24.9581 12.4527C25.0226 12.3285 25.0619 12.1929 25.0738 12.0536C25.0857 11.9142 25.07 11.7739 25.0275 11.6406C24.9851 11.5073 24.9168 11.3838 24.8264 11.277C24.7361 11.1702 24.6256 11.0823 24.5013 11.0183C22.1615 9.90302 19.5911 9.35691 17 9.42454C14.4089 9.35691 11.8385 9.90302 9.49876 11.0183C9.3744 11.0823 9.26389 11.1702 9.17358 11.277C9.08326 11.3838 9.01493 11.5073 8.97248 11.6406C8.93003 11.7739 8.91431 11.9142 8.92622 12.0536C8.93813 12.1929 8.97744 12.3285 9.04189 12.4527C9.17298 12.702 9.39771 12.8891 9.66669 12.9727C9.93566 13.0564 10.2269 13.0299 10.4763 12.8989C12.5154 11.9453 14.7498 11.4831 17 11.5495C19.2502 11.4831 21.4846 11.9453 23.5238 12.8989C23.6741 12.9801 23.8417 13.0238 24.0125 13.0264C24.2076 13.0268 24.3991 12.9735 24.5659 12.8723C24.7327 12.7711 24.8684 12.6259 24.9581 12.4527Z" fill="black"/>
</svg>
